<mxfile host="app.diagrams.net" modified="2023-05-05T16:48:26.226Z" agent="Mozilla/5.0 (Windows NT 10.0; Win64; x64) AppleWebKit/537.36 (KHTML, like Gecko) Chrome/113.0.0.0 Safari/537.36" etag="qesUBck0pMgsw1bGLQ3R" version="21.2.7" type="github">
  <diagram name="페이지-1" id="8g4WbuauTb0pvzEL557A">
    <mxGraphModel dx="1221" dy="751" grid="1" gridSize="10" guides="1" tooltips="1" connect="1" arrows="1" fold="1" page="1" pageScale="1" pageWidth="827" pageHeight="1169" math="0" shadow="0">
      <root>
        <mxCell id="0" />
        <mxCell id="1" parent="0" />
        <mxCell id="vdlT-CZ9VOS_37O9pcbH-1" value="" style="edgeStyle=orthogonalEdgeStyle;rounded=0;orthogonalLoop=1;jettySize=auto;html=1;" edge="1" parent="1" source="vdlT-CZ9VOS_37O9pcbH-3" target="vdlT-CZ9VOS_37O9pcbH-5">
          <mxGeometry relative="1" as="geometry" />
        </mxCell>
        <mxCell id="vdlT-CZ9VOS_37O9pcbH-2" value="" style="edgeStyle=orthogonalEdgeStyle;rounded=0;orthogonalLoop=1;jettySize=auto;html=1;" edge="1" parent="1" source="vdlT-CZ9VOS_37O9pcbH-3" target="vdlT-CZ9VOS_37O9pcbH-15">
          <mxGeometry relative="1" as="geometry">
            <Array as="points">
              <mxPoint x="120" y="260" />
              <mxPoint x="720" y="260" />
            </Array>
          </mxGeometry>
        </mxCell>
        <mxCell id="vdlT-CZ9VOS_37O9pcbH-3" value="사용자가 얻은 기회는&amp;nbsp;&lt;br&gt;10회" style="rounded=1;whiteSpace=wrap;html=1;" vertex="1" parent="1">
          <mxGeometry x="60" y="430" width="120" height="60" as="geometry" />
        </mxCell>
        <mxCell id="vdlT-CZ9VOS_37O9pcbH-4" value="" style="edgeStyle=orthogonalEdgeStyle;rounded=0;orthogonalLoop=1;jettySize=auto;html=1;" edge="1" parent="1" source="vdlT-CZ9VOS_37O9pcbH-5" target="vdlT-CZ9VOS_37O9pcbH-8">
          <mxGeometry relative="1" as="geometry" />
        </mxCell>
        <mxCell id="vdlT-CZ9VOS_37O9pcbH-5" value="내고싶은 가위바위보&lt;br&gt;이미지를 click" style="rounded=1;whiteSpace=wrap;html=1;" vertex="1" parent="1">
          <mxGeometry x="210" y="430" width="120" height="60" as="geometry" />
        </mxCell>
        <mxCell id="vdlT-CZ9VOS_37O9pcbH-6" value="" style="edgeStyle=orthogonalEdgeStyle;rounded=0;orthogonalLoop=1;jettySize=auto;html=1;" edge="1" parent="1" source="vdlT-CZ9VOS_37O9pcbH-8" target="vdlT-CZ9VOS_37O9pcbH-9">
          <mxGeometry relative="1" as="geometry" />
        </mxCell>
        <mxCell id="vdlT-CZ9VOS_37O9pcbH-7" value="" style="edgeStyle=orthogonalEdgeStyle;rounded=0;orthogonalLoop=1;jettySize=auto;html=1;" edge="1" parent="1" source="vdlT-CZ9VOS_37O9pcbH-8" target="vdlT-CZ9VOS_37O9pcbH-11">
          <mxGeometry relative="1" as="geometry" />
        </mxCell>
        <mxCell id="vdlT-CZ9VOS_37O9pcbH-8" value="com은 random 가위바위보" style="rhombus;whiteSpace=wrap;html=1;rounded=1;fillColor=#f8cecc;strokeColor=#b85450;shape=cross;perimeter=rectanglePerimeter;direction=south;size=1;" vertex="1" parent="1">
          <mxGeometry x="360" y="420" width="80" height="80" as="geometry" />
        </mxCell>
        <mxCell id="vdlT-CZ9VOS_37O9pcbH-9" value="이긴다면&amp;nbsp;&lt;br&gt;Player +1" style="whiteSpace=wrap;html=1;rounded=1;" vertex="1" parent="1">
          <mxGeometry x="340" y="530" width="120" height="60" as="geometry" />
        </mxCell>
        <mxCell id="vdlT-CZ9VOS_37O9pcbH-10" value="" style="edgeStyle=orthogonalEdgeStyle;rounded=0;orthogonalLoop=1;jettySize=auto;html=1;" edge="1" parent="1" source="vdlT-CZ9VOS_37O9pcbH-11" target="vdlT-CZ9VOS_37O9pcbH-12">
          <mxGeometry relative="1" as="geometry" />
        </mxCell>
        <mxCell id="vdlT-CZ9VOS_37O9pcbH-11" value="진다면&amp;nbsp;&lt;br&gt;Com +1" style="whiteSpace=wrap;html=1;rounded=1;" vertex="1" parent="1">
          <mxGeometry x="340" y="330" width="120" height="60" as="geometry" />
        </mxCell>
        <mxCell id="vdlT-CZ9VOS_37O9pcbH-12" value="남은기회-1" style="ellipse;whiteSpace=wrap;html=1;rounded=1;fillColor=#dae8fc;strokeColor=#6c8ebf;" vertex="1" parent="1">
          <mxGeometry x="520" y="410" width="80" height="80" as="geometry" />
        </mxCell>
        <mxCell id="vdlT-CZ9VOS_37O9pcbH-13" value="" style="endArrow=classic;html=1;rounded=0;exitX=1;exitY=0.5;exitDx=0;exitDy=0;entryX=0.5;entryY=1;entryDx=0;entryDy=0;" edge="1" parent="1" source="vdlT-CZ9VOS_37O9pcbH-9" target="vdlT-CZ9VOS_37O9pcbH-12">
          <mxGeometry width="50" height="50" relative="1" as="geometry">
            <mxPoint x="490" y="590" as="sourcePoint" />
            <mxPoint x="570" y="510" as="targetPoint" />
            <Array as="points">
              <mxPoint x="560" y="560" />
            </Array>
          </mxGeometry>
        </mxCell>
        <mxCell id="vdlT-CZ9VOS_37O9pcbH-14" value="" style="edgeStyle=elbowEdgeStyle;elbow=horizontal;endArrow=classic;html=1;curved=0;rounded=0;endSize=8;startSize=8;exitX=1;exitY=0.5;exitDx=0;exitDy=0;" edge="1" parent="1" source="vdlT-CZ9VOS_37O9pcbH-12">
          <mxGeometry width="50" height="50" relative="1" as="geometry">
            <mxPoint x="630" y="470" as="sourcePoint" />
            <mxPoint x="660" y="450" as="targetPoint" />
            <Array as="points">
              <mxPoint x="640" y="450" />
            </Array>
          </mxGeometry>
        </mxCell>
        <mxCell id="vdlT-CZ9VOS_37O9pcbH-15" value="10회 차감시&lt;br&gt;게임종료 와 함께 승리자 모달창 띄워짐" style="rounded=1;whiteSpace=wrap;html=1;" vertex="1" parent="1">
          <mxGeometry x="660" y="420" width="120" height="60" as="geometry" />
        </mxCell>
        <mxCell id="vdlT-CZ9VOS_37O9pcbH-16" value="" style="rounded=0;whiteSpace=wrap;html=1;" vertex="1" parent="1">
          <mxGeometry x="110" y="680" width="120" height="60" as="geometry" />
        </mxCell>
      </root>
    </mxGraphModel>
  </diagram>
</mxfile>
